<svg enable-background="new 0 0 128 128" viewBox="0 0 128 128" xmlns="http://www.w3.org/2000/svg"><g id="Layer_1"/><g id="Layer_2"><g><circle cx="64" cy="63.97" fill="#ffbc45" r="33.51"/><path d="m78.97 34c2.26 4.51 3.53 9.59 3.53 14.97 0 18.5-15 33.51-33.51 33.51-5.38 0-10.47-1.28-14.97-3.53 5.51 10.98 16.86 18.53 29.98 18.53 18.5 0 33.51-15 33.51-33.51 0-13.12-7.55-24.47-18.54-29.97z" fill="#f9ae35"/><g fill="#ffbc45"><path d="m64 2c-1.1 0-2 .9-2 2v11.22c0 1.1.9 2 2 2s2-.9 2-2v-11.22c0-1.1-.9-2-2-2z"/><path d="m64 110.73c-1.1 0-2 .9-2 2v11.22c0 1.1.9 2 2 2s2-.9 2-2v-11.22c0-1.11-.9-2-2-2z"/><path d="m104.99 20.15-7.93 7.93c-.78.78-.78 2.05 0 2.83.39.39.9.59 1.41.59s1.02-.2 1.41-.59l7.93-7.93c.78-.78.78-2.05 0-2.83s-2.04-.78-2.82 0z"/><path d="m28.11 97.03-7.93 7.93c-.78.78-.78 2.05 0 2.83.39.39.9.59 1.41.59s1.02-.2 1.41-.59l7.93-7.93c.78-.78.78-2.05 0-2.83s-2.04-.78-2.82 0z"/><path d="m123.97 61.97h-11.22c-1.1 0-2 .9-2 2s.9 2 2 2h11.22c1.1 0 2-.9 2-2s-.89-2-2-2z"/><path d="m15.25 61.97h-11.22c-1.1 0-2 .9-2 2s.9 2 2 2h11.22c1.1 0 2-.9 2-2s-.9-2-2-2z"/><path d="m99.89 97.03c-.78-.78-2.05-.78-2.83 0s-.78 2.05 0 2.83l7.93 7.93c.39.39.9.59 1.41.59s1.02-.2 1.41-.59c.78-.78.78-2.05 0-2.83z"/><path d="m23.01 20.15c-.78-.78-2.05-.78-2.83 0s-.78 2.05 0 2.83l7.93 7.93c.39.39.9.59 1.41.59s1.02-.2 1.41-.59c.78-.78.78-2.05 0-2.83z"/></g></g></g></svg>